<svg viewBox="0 0 32 32" fill="inherit" xmlns="http://www.w3.org/2000/svg">
<path d="M16 32C18.1999 32 20.2656 31.5815 22.1972 30.7445C24.1288 29.9182 25.8296 28.77 27.2998 27.2998C28.77 25.8296 29.9182 24.1288 30.7445 22.1972C31.5815 20.2656 32 18.1999 32 16C32 13.8109 31.5815 11.7505 30.7445 9.81891C29.9182 7.88732 28.7646 6.18645 27.2837 4.7163C25.8135 3.24614 24.1127 2.09256 22.1811 1.25553C20.2495 0.418511 18.1838 0 15.9839 0C13.8055 0 11.7505 0.418511 9.81891 1.25553C7.88732 2.09256 6.18109 3.24614 4.7002 4.7163C3.23005 6.18645 2.07646 7.88732 1.23944 9.81891C0.413146 11.7505 0 13.8109 0 16C0 18.1999 0.418511 20.2656 1.25553 22.1972C2.09256 24.1288 3.24614 25.8296 4.7163 27.2998C6.18645 28.77 7.88732 29.9182 9.81891 30.7445C11.7505 31.5815 13.8109 32 16 32ZM14.4386 21.0221C13.226 21.0221 12.1154 20.7217 11.1066 20.1207C10.0979 19.5198 9.28773 18.715 8.67606 17.7062C8.07512 16.6975 7.77465 15.5815 7.77465 14.3581C7.77465 13.1455 8.07512 12.0349 8.67606 11.0262C9.28773 10.0067 10.0979 9.19651 11.1066 8.59557C12.1154 7.99463 13.226 7.69416 14.4386 7.69416C15.6512 7.69416 16.7619 7.99463 17.7706 8.59557C18.7793 9.19651 19.5842 10.0067 20.1851 11.0262C20.786 12.0349 21.0865 13.1455 21.0865 14.3581C21.0865 14.9805 21.0007 15.5761 20.829 16.1449C20.668 16.7136 20.4373 17.2448 20.1368 17.7384L23.662 21.2797C23.8444 21.4514 23.9785 21.6445 24.0644 21.8592C24.1502 22.063 24.1932 22.283 24.1932 22.5191C24.1932 23.0127 24.0322 23.4259 23.7103 23.7586C23.3883 24.0912 22.9805 24.2575 22.4869 24.2575C21.9826 24.2575 21.5426 24.0644 21.167 23.6781L17.6258 20.169C17.1536 20.4373 16.6492 20.6465 16.1127 20.7968C15.5761 20.947 15.0181 21.0221 14.4386 21.0221ZM14.4386 18.3823C15.1791 18.3823 15.8498 18.1999 16.4507 17.835C17.0516 17.4702 17.5345 16.9873 17.8994 16.3863C18.2643 15.7746 18.4467 15.0986 18.4467 14.3581C18.4467 13.6177 18.2643 12.9417 17.8994 12.33C17.5345 11.7183 17.0516 11.2354 16.4507 10.8813C15.8498 10.5164 15.1791 10.334 14.4386 10.334C13.6982 10.334 13.0221 10.5164 12.4105 10.8813C11.7988 11.2461 11.3105 11.7344 10.9457 12.3461C10.5915 12.9577 10.4145 13.6284 10.4145 14.3581C10.4145 15.0986 10.5915 15.7746 10.9457 16.3863C11.3105 16.9873 11.7988 17.4702 12.4105 17.835C13.0221 18.1999 13.6982 18.3823 14.4386 18.3823Z" />
</svg>
